<?xml version="1.0" encoding="utf-8"?>
<!-- Generator: Adobe Illustrator 17.1.0, SVG Export Plug-In . SVG Version: 6.00 Build 0)  -->
<!DOCTYPE svg PUBLIC "-//W3C//DTD SVG 1.1//EN" "http://www.w3.org/Graphics/SVG/1.1/DTD/svg11.dtd">
<svg version="1.1" id="Layer_1" xmlns="http://www.w3.org/2000/svg" xmlns:xlink="http://www.w3.org/1999/xlink" x="0px" y="0px"
	 viewBox="0 0 378.8 191.1" enable-background="new 0 0 378.8 191.1" xml:space="preserve">
<g>
	<g>
		<path d="M127.2,158h-6.4V89.5h6.4V158z"/>
		<path d="M164.6,95.3V158h-6.4V95.3h-19.7v-5.8h45.9v5.8H164.6z"/>
		<path d="M221.3,158h-6.2l-25-68.5h7.1l19.4,54.8c0.3,1,0.7,2,0.9,3.1c0.3,1,0.5,2.1,0.6,3.2h0.2c0.2-0.9,0.4-1.9,0.7-2.9
			c0.3-1.1,0.7-2.2,1.1-3.5l20.2-54.7h6.9L221.3,158z"/>
		<path d="M257.6,158V89.5h18c11.7,0,20.6,2.8,26.6,8.4c6,5.6,9,13.9,9,24.9c0,5.3-0.8,10.1-2.5,14.4c-1.7,4.3-4.1,8-7.2,11.1
			c-3.2,3.1-7,5.4-11.5,7.1c-4.5,1.7-9.6,2.5-15.2,2.5H257.6z M263.9,95.3v56.9h10.5c4.7,0,8.9-0.6,12.6-1.9
			c3.7-1.3,6.9-3.1,9.4-5.6c2.6-2.5,4.5-5.5,5.9-9.2c1.4-3.6,2-7.8,2-12.5c0-18.5-9.8-27.7-29.3-27.7H263.9z"/>
		<path d="M371.8,158l-38-55c-0.5-0.7-0.9-1.4-1.4-2.2c-0.5-0.7-0.8-1.4-1.1-2.2H331c0.1,0.6,0.1,1.4,0.2,2.4c0,1,0.1,2.3,0.1,3.8
			V158h-6.4V89.5h7l37.4,54.3c0.6,0.9,1.1,1.7,1.6,2.4c0.5,0.7,0.9,1.4,1.3,2.1h0.2c-0.1-1.1-0.2-2.2-0.3-3.5
			c-0.1-1.3-0.1-2.8-0.1-4.3v-51h6.4V158H371.8z"/>
	</g>
	<g>
		<path d="M122.1,183.1h-1.2v-13h1.2V183.1z"/>
		<path d="M128.7,171.2v11.9h-1.2v-11.9h-3.7V170h8.7v1.1H128.7z"/>
		<path d="M143.3,183.1h-1.2l-4.7-13h1.4l3.7,10.4c0.1,0.2,0.1,0.4,0.2,0.6c0.1,0.2,0.1,0.4,0.1,0.6h0c0-0.2,0.1-0.4,0.1-0.6
			c0.1-0.2,0.1-0.4,0.2-0.7l3.8-10.4h1.3L143.3,183.1z"/>
		<path d="M150.9,183.1h-1.2v-13h1.2V183.1z"/>
		<path d="M153.9,183.1v-13h3.4c2.2,0,3.9,0.5,5,1.6c1.1,1.1,1.7,2.6,1.7,4.7c0,1-0.2,1.9-0.5,2.7c-0.3,0.8-0.8,1.5-1.4,2.1
			c-0.6,0.6-1.3,1-2.2,1.4c-0.9,0.3-1.8,0.5-2.9,0.5H153.9z M155.1,171.2V182h2c0.9,0,1.7-0.1,2.4-0.4c0.7-0.2,1.3-0.6,1.8-1.1
			c0.5-0.5,0.9-1,1.1-1.7c0.3-0.7,0.4-1.5,0.4-2.4c0-3.5-1.9-5.3-5.6-5.3H155.1z"/>
		<path d="M166.2,183.1v-13h6.3v1.1h-5.1v4.8h4.8v1.1h-4.8v4.9h5.4v1.1H166.2z"/>
		<path d="M180.4,183.3c-0.9,0-1.8-0.2-2.5-0.5s-1.4-0.8-1.9-1.4c-0.5-0.6-0.9-1.3-1.2-2.1c-0.3-0.8-0.4-1.7-0.4-2.6
			c0-1,0.1-1.9,0.4-2.8c0.3-0.8,0.7-1.6,1.2-2.2c0.5-0.6,1.2-1.1,2-1.4c0.8-0.3,1.7-0.5,2.7-0.5c0.9,0,1.7,0.2,2.5,0.5
			c0.7,0.3,1.4,0.8,1.9,1.4c0.5,0.6,0.9,1.3,1.2,2.1c0.3,0.8,0.4,1.7,0.4,2.6c0,1-0.1,1.9-0.4,2.7c-0.3,0.8-0.7,1.6-1.2,2.2
			c-0.5,0.6-1.2,1.1-1.9,1.5C182.3,183.1,181.4,183.3,180.4,183.3z M180.5,170.9c-0.8,0-1.5,0.1-2.1,0.4c-0.6,0.3-1.1,0.7-1.5,1.2
			c-0.4,0.5-0.7,1.1-0.9,1.8c-0.2,0.7-0.3,1.4-0.3,2.2c0,0.7,0.1,1.4,0.3,2.1c0.2,0.7,0.5,1.3,0.9,1.8c0.4,0.5,0.9,0.9,1.5,1.2
			c0.6,0.3,1.3,0.5,2.1,0.5c0.8,0,1.5-0.1,2.1-0.4c0.6-0.3,1.1-0.7,1.5-1.2c0.4-0.5,0.7-1.1,0.9-1.8c0.2-0.7,0.3-1.4,0.3-2.3
			c0-0.8-0.1-1.5-0.3-2.2c-0.2-0.7-0.5-1.3-0.9-1.8c-0.4-0.5-0.9-0.9-1.5-1.2C182.1,171.1,181.3,170.9,180.5,170.9z"/>
		<path d="M193.4,183.1v-13h3.4c2.2,0,3.9,0.5,5,1.6c1.1,1.1,1.7,2.6,1.7,4.7c0,1-0.2,1.9-0.5,2.7c-0.3,0.8-0.8,1.5-1.4,2.1
			c-0.6,0.6-1.3,1-2.2,1.4s-1.8,0.5-2.9,0.5H193.4z M194.6,171.2V182h2c0.9,0,1.7-0.1,2.4-0.4c0.7-0.2,1.3-0.6,1.8-1.1
			c0.5-0.5,0.9-1,1.1-1.7c0.3-0.7,0.4-1.5,0.4-2.4c0-3.5-1.9-5.3-5.6-5.3H194.6z"/>
		<path d="M205.7,183.1v-13h6.3v1.1h-5.1v4.8h4.8v1.1h-4.8v4.9h5.4v1.1H205.7z"/>
		<path d="M219.1,183.1h-1.2l-4.7-13h1.4l3.7,10.4c0.1,0.2,0.1,0.4,0.2,0.6c0.1,0.2,0.1,0.4,0.1,0.6h0c0-0.2,0.1-0.4,0.1-0.6
			c0.1-0.2,0.1-0.4,0.2-0.7l3.8-10.4h1.3L219.1,183.1z"/>
		<path d="M225.5,183.1v-13h6.3v1.1h-5.1v4.8h4.8v1.1h-4.8v4.9h5.4v1.1H225.5z"/>
		<path d="M234.4,183.1v-13h1.2V182h5.2v1.1H234.4z"/>
		<path d="M247.3,183.3c-0.9,0-1.8-0.2-2.5-0.5c-0.8-0.3-1.4-0.8-1.9-1.4c-0.5-0.6-0.9-1.3-1.2-2.1c-0.3-0.8-0.4-1.7-0.4-2.6
			c0-1,0.1-1.9,0.4-2.8c0.3-0.8,0.7-1.6,1.2-2.2c0.5-0.6,1.2-1.1,2-1.4c0.8-0.3,1.7-0.5,2.7-0.5c0.9,0,1.7,0.2,2.5,0.5
			c0.7,0.3,1.4,0.8,1.9,1.4c0.5,0.6,0.9,1.3,1.2,2.1c0.3,0.8,0.4,1.7,0.4,2.6c0,1-0.1,1.9-0.4,2.7c-0.3,0.8-0.7,1.6-1.2,2.2
			c-0.5,0.6-1.2,1.1-1.9,1.5C249.1,183.1,248.2,183.3,247.3,183.3z M247.4,170.9c-0.8,0-1.5,0.1-2.1,0.4c-0.6,0.3-1.1,0.7-1.5,1.2
			c-0.4,0.5-0.7,1.1-0.9,1.8c-0.2,0.7-0.3,1.4-0.3,2.2c0,0.7,0.1,1.4,0.3,2.1c0.2,0.7,0.5,1.3,0.9,1.8c0.4,0.5,0.9,0.9,1.5,1.2
			c0.6,0.3,1.3,0.5,2.1,0.5c0.8,0,1.5-0.1,2.1-0.4c0.6-0.3,1.1-0.7,1.5-1.2c0.4-0.5,0.7-1.1,0.9-1.8c0.2-0.7,0.3-1.4,0.3-2.3
			c0-0.8-0.1-1.5-0.3-2.2c-0.2-0.7-0.5-1.3-0.9-1.8c-0.4-0.5-0.9-0.9-1.5-1.2C248.9,171.1,248.2,170.9,247.4,170.9z"/>
		<path d="M256.8,178v5.1h-1.2v-13h3.4c0.7,0,1.3,0.1,1.8,0.3c0.5,0.2,1,0.4,1.3,0.7c0.4,0.3,0.6,0.7,0.8,1.2c0.2,0.5,0.3,1,0.3,1.6
			c0,0.6-0.1,1.2-0.3,1.7c-0.2,0.5-0.5,1-0.9,1.3c-0.4,0.4-0.9,0.7-1.4,0.9c-0.6,0.2-1.2,0.3-1.9,0.3H256.8z M256.8,171.2v5.7h1.7
			c1.1,0,2-0.3,2.6-0.8c0.6-0.5,0.9-1.3,0.9-2.2c0-1.8-1.1-2.8-3.2-2.8H256.8z"/>
		<path d="M265.4,183.1v-13h6.3v1.1h-5.1v4.8h4.8v1.1h-4.8v4.9h5.4v1.1H265.4z"/>
		<path d="M281.4,183.1l-2-3.7c-0.2-0.4-0.4-0.7-0.6-0.9c-0.2-0.2-0.4-0.4-0.6-0.6c-0.2-0.1-0.4-0.3-0.6-0.3
			c-0.2-0.1-0.5-0.1-0.7-0.1h-1.4v5.7h-1.2v-13h3.7c0.5,0,1,0.1,1.4,0.2c0.5,0.1,0.9,0.4,1.2,0.6c0.4,0.3,0.6,0.6,0.9,1.1
			c0.2,0.4,0.3,0.9,0.3,1.5c0,0.5-0.1,0.9-0.2,1.3c-0.1,0.4-0.3,0.7-0.6,1c-0.3,0.3-0.6,0.6-0.9,0.8c-0.4,0.2-0.8,0.4-1.2,0.5v0
			c0.2,0.1,0.3,0.2,0.5,0.3c0.1,0.1,0.3,0.3,0.4,0.4c0.1,0.2,0.3,0.4,0.4,0.6c0.1,0.2,0.3,0.5,0.4,0.7l2.2,4H281.4z M275.5,171.2
			v5.1h2.2c0.4,0,0.8-0.1,1.2-0.2c0.4-0.1,0.7-0.3,0.9-0.5c0.3-0.2,0.5-0.5,0.6-0.9c0.1-0.3,0.2-0.7,0.2-1.1c0-0.8-0.2-1.4-0.7-1.8
			c-0.5-0.4-1.2-0.6-2.1-0.6H275.5z"/>
		<path d="M284,181.2c0.2,0.2,0.5,0.3,0.7,0.4c0.3,0.1,0.5,0.2,0.8,0.3c0.3,0.1,0.6,0.2,0.8,0.2c0.3,0,0.5,0.1,0.8,0.1
			c1,0,1.7-0.2,2.2-0.6c0.5-0.4,0.7-0.9,0.7-1.6c0-0.3-0.1-0.6-0.2-0.9c-0.1-0.3-0.3-0.5-0.5-0.7c-0.2-0.2-0.5-0.4-0.9-0.7
			c-0.4-0.2-0.8-0.5-1.3-0.7c-0.6-0.3-1-0.6-1.4-0.9c-0.4-0.3-0.7-0.5-1-0.8c-0.3-0.3-0.4-0.6-0.6-0.9c-0.1-0.3-0.2-0.7-0.2-1.1
			c0-0.5,0.1-1,0.3-1.4c0.2-0.4,0.5-0.8,0.9-1.1c0.4-0.3,0.8-0.5,1.3-0.7c0.5-0.2,1.1-0.2,1.6-0.2c1,0,1.9,0.1,2.6,0.4v1.3
			c-0.8-0.4-1.7-0.7-2.7-0.7c-0.4,0-0.8,0-1.1,0.1c-0.3,0.1-0.6,0.2-0.9,0.4c-0.3,0.2-0.5,0.4-0.6,0.7c-0.1,0.3-0.2,0.6-0.2,0.9
			c0,0.3,0,0.6,0.1,0.9c0.1,0.2,0.3,0.5,0.5,0.7c0.2,0.2,0.5,0.4,0.9,0.6c0.4,0.2,0.8,0.5,1.3,0.7c0.5,0.3,1,0.6,1.4,0.8
			c0.4,0.3,0.7,0.6,1,0.9c0.3,0.3,0.5,0.6,0.6,1c0.1,0.3,0.2,0.7,0.2,1.1c0,0.6-0.1,1.1-0.3,1.5c-0.2,0.4-0.5,0.8-0.9,1.1
			c-0.4,0.3-0.8,0.5-1.4,0.6c-0.5,0.1-1.1,0.2-1.7,0.2c-0.2,0-0.5,0-0.7,0c-0.3,0-0.6-0.1-0.9-0.1c-0.3-0.1-0.6-0.1-0.8-0.2
			c-0.3-0.1-0.5-0.2-0.6-0.3V181.2z"/>
		<path d="M307.2,183.1l-7.2-10.4c-0.1-0.1-0.2-0.3-0.3-0.4c-0.1-0.1-0.2-0.3-0.2-0.4h0c0,0.1,0,0.3,0,0.5c0,0.2,0,0.4,0,0.7v10.1
			h-1.2v-13h1.3l7.1,10.3c0.1,0.2,0.2,0.3,0.3,0.5c0.1,0.1,0.2,0.3,0.2,0.4h0c0-0.2,0-0.4-0.1-0.7c0-0.2,0-0.5,0-0.8V170h1.2v13
			H307.2z"/>
		<path d="M311.4,183.1v-13h6.3v1.1h-5.1v4.8h4.8v1.1h-4.8v4.9h5.4v1.1H311.4z"/>
		<path d="M324,171.2v11.9h-1.2v-11.9h-3.7V170h8.7v1.1H324z"/>
		<path d="M341,183.1h-1.3l-2.8-9.6c-0.1-0.2-0.1-0.5-0.2-0.7c0-0.2-0.1-0.4-0.1-0.6h0c0,0.4-0.1,0.8-0.3,1.3l-2.9,9.7h-1.3l-3.8-13
			h1.3l2.9,10.2c0.1,0.2,0.1,0.4,0.2,0.6c0,0.2,0.1,0.4,0.1,0.6h0c0-0.3,0.1-0.7,0.3-1.2l3-10.2h1l2.9,10.2c0.1,0.2,0.1,0.4,0.1,0.6
			c0,0.2,0.1,0.4,0.1,0.6h0c0-0.1,0-0.3,0.1-0.4c0-0.2,0.1-0.3,0.1-0.5l2.9-10.5h1.3L341,183.1z"/>
		<path d="M351.7,183.3c-0.9,0-1.8-0.2-2.5-0.5c-0.8-0.3-1.4-0.8-1.9-1.4c-0.5-0.6-0.9-1.3-1.2-2.1c-0.3-0.8-0.4-1.7-0.4-2.6
			c0-1,0.1-1.9,0.4-2.8c0.3-0.8,0.7-1.6,1.2-2.2c0.5-0.6,1.2-1.1,2-1.4c0.8-0.3,1.7-0.5,2.7-0.5c0.9,0,1.7,0.2,2.5,0.5
			c0.7,0.3,1.4,0.8,1.9,1.4c0.5,0.6,0.9,1.3,1.2,2.1c0.3,0.8,0.4,1.7,0.4,2.6c0,1-0.1,1.9-0.4,2.7c-0.3,0.8-0.7,1.6-1.2,2.2
			c-0.5,0.6-1.2,1.1-1.9,1.5C353.6,183.1,352.7,183.3,351.7,183.3z M351.8,170.9c-0.8,0-1.5,0.1-2.1,0.4c-0.6,0.3-1.1,0.7-1.5,1.2
			c-0.4,0.5-0.7,1.1-0.9,1.8c-0.2,0.7-0.3,1.4-0.3,2.2c0,0.7,0.1,1.4,0.3,2.1c0.2,0.7,0.5,1.3,0.9,1.8c0.4,0.5,0.9,0.9,1.5,1.2
			c0.6,0.3,1.3,0.5,2.1,0.5c0.8,0,1.5-0.1,2.1-0.4c0.6-0.3,1.1-0.7,1.5-1.2c0.4-0.5,0.7-1.1,0.9-1.8c0.2-0.7,0.3-1.4,0.3-2.3
			c0-0.8-0.1-1.5-0.3-2.2c-0.2-0.7-0.5-1.3-0.9-1.8c-0.4-0.5-0.9-0.9-1.5-1.2C353.4,171.1,352.6,170.9,351.8,170.9z"/>
		<path d="M367.1,183.1l-2-3.7c-0.2-0.4-0.4-0.7-0.6-0.9c-0.2-0.2-0.4-0.4-0.6-0.6c-0.2-0.1-0.4-0.3-0.6-0.3
			c-0.2-0.1-0.5-0.1-0.7-0.1h-1.4v5.7H360v-13h3.7c0.5,0,1,0.1,1.4,0.2c0.5,0.1,0.9,0.4,1.2,0.6c0.4,0.3,0.6,0.6,0.9,1.1
			c0.2,0.4,0.3,0.9,0.3,1.5c0,0.5-0.1,0.9-0.2,1.3c-0.1,0.4-0.3,0.7-0.6,1c-0.3,0.3-0.6,0.6-0.9,0.8c-0.4,0.2-0.8,0.4-1.2,0.5v0
			c0.2,0.1,0.3,0.2,0.5,0.3c0.1,0.1,0.3,0.3,0.4,0.4c0.1,0.2,0.3,0.4,0.4,0.6c0.1,0.2,0.3,0.5,0.4,0.7l2.2,4H367.1z M361.2,171.2
			v5.1h2.2c0.4,0,0.8-0.1,1.2-0.2c0.4-0.1,0.7-0.3,0.9-0.5c0.3-0.2,0.5-0.5,0.6-0.9c0.1-0.3,0.2-0.7,0.2-1.1c0-0.8-0.2-1.4-0.7-1.8
			c-0.5-0.4-1.2-0.6-2.1-0.6H361.2z"/>
		<path d="M377.1,183.1l-5.3-6.1c-0.1-0.2-0.2-0.3-0.3-0.4h0v6.5h-1.2v-13h1.2v6.1h0c0-0.1,0.1-0.1,0.1-0.2c0-0.1,0.1-0.1,0.2-0.2
			l5.1-5.7h1.5l-5.6,6.3l6,6.7H377.1z"/>
	</g>
	<polygon fill-rule="evenodd" clip-rule="evenodd" fill="#717373" points="45.9,144.7 0,191.1 0,99.4 45.9,52.9 	"/>
	<polygon fill-rule="evenodd" clip-rule="evenodd" fill="#DF5E1F" points="98.2,91.8 52.3,138.2 52.3,46.4 98.2,0 	"/>
	<g>
		<g>
			<defs>
				<rect id="SVGID_1_" x="0" y="15.3" width="98.2" height="100.4"/>
			</defs>
			<clipPath id="SVGID_2_">
				<use xlink:href="#SVGID_1_"  overflow="visible"/>
			</clipPath>
			<path clip-path="url(#SVGID_2_)" fill="#59595A" d="M52.3,76.3V78c14.9-11.2,29.6-23.9,45.7-38c0.1-0.1,0.1-0.1,0.2-0.2v-1.8
				c-0.4,0.3-0.7,0.6-1.1,1C81.3,52.8,66.9,65.3,52.3,76.3"/>
			<path clip-path="url(#SVGID_2_)" fill="#59595A" d="M0,108.7c16.7-7,31.5-15.8,45.9-26v-1.7C31.5,91.4,16.7,100.2,0,107.3V108.7z
				"/>
			<path clip-path="url(#SVGID_2_)" fill="#59595A" d="M0,106.3c16.7-7.1,31.5-16,45.9-26.5v-1.7C31.5,88.7,16.7,97.7,0,104.8V106.3
				z"/>
			<path clip-path="url(#SVGID_2_)" fill="#59595A" d="M52.3,73.2v1.7c14.4-11.1,28.6-23.6,44.1-37.4c0.6-0.5,1.2-1,1.7-1.6v-1.8
				c-0.9,0.8-1.8,1.6-2.6,2.3C80.3,50,66.4,62.4,52.3,73.2"/>
			<path clip-path="url(#SVGID_2_)" fill="#59595A" d="M0,103.8c16.8-7.2,31.6-16.4,45.9-27.2v-1.7C31.6,85.8,16.8,95.1,0,102.3
				V103.8z"/>
			<path clip-path="url(#SVGID_2_)" fill="#59595A" d="M52.3,69.8v1.7C66.8,60,81,46.7,96.6,32.2c0.5-0.5,1.1-1,1.6-1.5v-1.8
				c-0.9,0.8-1.7,1.6-2.6,2.4C80.4,45.4,66.5,58.4,52.3,69.8"/>
			<path clip-path="url(#SVGID_2_)" fill="#59595A" d="M52.3,59.5c11.5-9.6,22.2-20,32.5-30.8c0.8-0.9-0.5-2.2-1.3-1.3
				c-10,10.4-20.2,20.5-31.2,29.8V59.5z"/>
			<path clip-path="url(#SVGID_2_)" fill="#59595A" d="M44.8,65.6c0.4-0.3,0.7-0.6,1-0.9v-2.3c-0.3,0.3-0.6,0.5-0.9,0.8
				c-9.6,7.6-19.8,14.4-30.1,21.1l-5.9,6C21.2,82.5,33.4,74.5,44.8,65.6"/>
			<path clip-path="url(#SVGID_2_)" fill="#59595A" d="M39.9,65.6c2.1-1.6,4-3.3,6-5v-2.4c-1.9,1.7-3.9,3.4-5.9,5
				c-4.5,3.6-9.3,6.8-14.1,10L20,79.1C26.9,74.9,33.6,70.5,39.9,65.6"/>
			<path clip-path="url(#SVGID_2_)" fill="#59595A" d="M74.9,29.5c-7.3,7.9-14.7,15.7-22.6,22.9V55c8.4-7.6,16.2-15.8,23.9-24.1
				C77.1,30,75.8,28.6,74.9,29.5"/>
			<path clip-path="url(#SVGID_2_)" fill="#59595A" d="M88.1,25.2c3.4-0.6,6.8-1.3,10.1-2.1v-2c-2.3,0.6-4.6,1.1-7,1.6
				c-6,1.2-12,2-18.1,2.6l-2,2C76.8,26.8,82.5,26.1,88.1,25.2"/>
			<path clip-path="url(#SVGID_2_)" fill="#59595A" d="M87.6,19.5c3.6-0.6,7.1-1.4,10.6-2.2v-2c-2.5,0.6-4.9,1.2-7.5,1.7
				c-3.7,0.7-7.5,1.3-11.2,1.8l-2.1,2.1C80.9,20.5,84.2,20.1,87.6,19.5"/>
			<path clip-path="url(#SVGID_2_)" fill="#59595A" d="M52.3,84.6C67.3,75,82,63.7,98.2,50v-1.5C82,62.2,67.3,73.6,52.3,83.3V84.6z"
				/>
			<path clip-path="url(#SVGID_2_)" fill="#59595A" d="M52.3,95.5C67.8,88,82.7,79.1,98.2,68.3v-1.4C82.6,77.8,67.8,86.7,52.3,94.2
				V95.5z"/>
			<path clip-path="url(#SVGID_2_)" fill="#59595A" d="M52.3,94.1c14.9-7.6,29.7-16.8,45.9-28.3v-1.4C82.1,76.1,67.3,85.2,52.3,92.9
				V94.1z"/>
			<path clip-path="url(#SVGID_2_)" fill="#59595A" d="M0,115.7c16.6-5.1,31.6-10.6,45.9-17.1v-2.4c-4.7,2.3-9.4,4.4-14.2,6.4
				c4.8-2.1,9.5-4.3,14.2-6.7v-1.2c-14,7.1-28.6,13-45.4,18.1c16.4-6.2,31.2-12.9,45.4-20.8v-1.3c-1.7,0.9-3.3,1.9-5,2.8
				c1.7-0.9,3.3-1.9,5-2.9v-1.3c-7.4,4.3-14.8,8.2-22.4,11.8c7.8-3.8,15.1-7.9,22.4-12.3v-1.3c-14.2,8.7-29,16-45.9,22.5V115.7z"/>
			<path clip-path="url(#SVGID_2_)" fill="#59595A" d="M52.3,92.4c15.3-8.2,30-17.9,45.9-29.6v-1.4C82.3,73.2,67.6,83,52.3,91.2
				V92.4z"/>
			<path clip-path="url(#SVGID_2_)" fill="#59595A" d="M52.3,88.2c15.3-9,30.1-19.4,45.9-32.2v-1.5C82.4,67.3,67.6,77.8,52.3,86.9
				V88.2z"/>
			<path clip-path="url(#SVGID_2_)" fill="#59595A" d="M52.3,86.6c14.7-9,29.5-19.8,45.9-33.3v-1.4C81.8,65.4,67,76.2,52.3,85.3
				V86.6z"/>
		</g>
	</g>
</g>
</svg>
