<?xml version="1.0" encoding="utf-8"?>
<!-- Generator: Adobe Illustrator 19.0.1, SVG Export Plug-In . SVG Version: 6.00 Build 0)  -->
<svg version="1.1" id="Шар_1" xmlns="http://www.w3.org/2000/svg" xmlns:xlink="http://www.w3.org/1999/xlink" x="0px" y="0px"
	 viewBox="0 0 198.4 198.4" style="enable-background:new 0 0 198.4 198.4;" xml:space="preserve">
<style type="text/css">
	.st0{clip-path:url(#SVGID_2_);fill:#4FB050;}
	.st1{clip-path:url(#SVGID_2_);}
	.st2{clip-path:url(#SVGID_4_);fill:#4FB050;}
</style>
<g>
	<g>
		<defs>
			<rect id="SVGID_1_" x="15.1" y="15.2" width="168.1" height="168.1"/>
		</defs>
		<clipPath id="SVGID_2_">
			<use xlink:href="#SVGID_1_"  style="overflow:visible;"/>
		</clipPath>
		<polygon class="st0" points="149.5,164.2 111.3,126.8 103.6,134.4 99.1,99.2 135,103.6 127.1,111.4 150.5,135.1 165,149.7 		"/>
		<g class="st1">
			<defs>
				<rect id="SVGID_3_" x="15.1" y="15.2" width="168.1" height="168.1"/>
			</defs>
			<clipPath id="SVGID_4_">
				<use xlink:href="#SVGID_3_"  style="overflow:visible;"/>
			</clipPath>
			<path class="st2" d="M99.1,150.8c-28.5,0-51.6-23.1-51.6-51.6s23.1-51.6,51.6-51.6s51.6,23.1,51.6,51.6h26.6V39
				c0-9.9-8.1-18-18-18H38.9c-9.9,0-18,8.1-18,18v120.4c0,9.9,8.1,18,18,18h60.2V150.8z"/>
		</g>
	</g>
</g>
</svg>
