<?xml version="1.0" encoding="UTF-8"?>
<!DOCTYPE svg PUBLIC "-//W3C//DTD SVG 1.1//EN" "http://www.w3.org/Graphics/SVG/1.1/DTD/svg11.dtd">
<!-- Creator: CorelDRAW X7 -->
<svg xmlns="http://www.w3.org/2000/svg" xml:space="preserve" width="148mm" height="44.478mm" version="1.1" style="shape-rendering:geometricPrecision; text-rendering:geometricPrecision; image-rendering:optimizeQuality; fill-rule:evenodd; clip-rule:evenodd"
viewBox="0 0 14800 4448"
 xmlns:xlink="http://www.w3.org/1999/xlink">
 <defs>
  <style type="text/css">
   <![CDATA[
    .str0 {stroke:#CCCFD0;stroke-width:17.64;stroke-linecap:round;stroke-linejoin:round}
    .fil0 {fill:none}
    .fil1 {fill:none;fill-rule:nonzero}
    .fil2 {fill:#00B4D5;fill-rule:nonzero}
    .fil3 {fill:#171B65;fill-rule:nonzero}
   ]]>
  </style>
 </defs>
 <g id="Layer_x0020_1">
  <metadata id="CorelCorpID_0Corel-Layer"/>
  <g id="_1032829712">
   <rect class="fil0" width="14788" height="4448"/>
   <path class="fil1 str0" d="M14775 1499l0 0zm-14775 0l0 0z"/>
   <path class="fil1 str0" d="M14788 2949l0 0zm-14776 0l0 0z"/>
   <g>
    <path class="fil2" d="M2077 2130c-166,-65 -309,-120 -309,-249 0,-149 135,-202 262,-202 220,0 337,121 338,122l11 12 98 -165 -6 -6c-5,-7 -141,-156 -435,-156 -234,0 -486,124 -486,395 0,256 232,348 436,429 166,65 310,122 310,250 0,143 -134,208 -266,208 -249,0 -402,-162 -403,-164l-10 -11 -117 155 7 7c2,2 46,52 133,103 79,47 212,102 388,102 281,0 485,-168 485,-400 0,-260 -232,-350 -436,-430z"/>
    <path class="fil2" d="M3481 1486c-417,0 -744,321 -744,730 0,417 327,744 744,744 417,0 744,-327 744,-744 0,-409 -327,-730 -744,-730zm527 730c0,309 -232,552 -527,552 -295,0 -527,-243 -527,-552 0,-300 232,-535 527,-535 295,0 527,235 527,535z"/>
    <path class="fil2" d="M5145 965c-1,-1 -34,-6 -87,-6 -147,0 -490,51 -490,526l0 53 -189 0 0 182 189 0 0 1208 211 0 0 -1208 354 0 0 -182 -354 0 0 -53c0,-125 39,-334 298,-334 37,0 63,5 64,5l14 3 0 -193 -10 -1z"/>
    <path class="fil2" d="M6144 2757l-16 3c0,0 -24,5 -61,5 -114,0 -304,-46 -304,-360l0 -681 353 0 0 -185 -353 0 0 -406 -213 0 0 406 -188 0 0 185 185 0 0 701c0,467 315,536 503,536 51,0 82,-5 83,-5l11 -2 0 -197z"/>
   </g>
   <g>
    <path class="fil3" d="M6574 2509c0,0 154,154 384,154 99,0 184,-44 184,-127 0,-210 -684,-182 -684,-635 0,-262 235,-414 538,-414 318,0 472,160 472,160l-130 260c0,0 -129,-122 -345,-122 -91,0 -179,39 -179,127 0,199 685,174 685,627 0,235 -205,422 -539,422 -350,0 -546,-207 -546,-207l160 -245z"/>
    <path class="fil3" d="M8443 1487c406,0 624,296 624,668 0,42 -8,136 -8,136l-972 0c22,245 213,372 423,372 226,0 405,-154 405,-154l136 251c0,0 -216,201 -566,201 -467,0 -757,-336 -757,-737 0,-433 296,-737 715,-737zm271 563c-6,-190 -124,-292 -279,-292 -179,0 -304,110 -337,292l616 0z"/>
    <path class="fil3" d="M9420 1520l337 0 0 243c0,53 -6,100 -6,100l6 0c63,-202 232,-362 447,-362 33,0 63,6 63,6l0 345c0,0 -35,-6 -82,-6 -149,0 -318,86 -384,296 -22,69 -30,146 -30,229l0 557 -351 0 0 -1408z"/>
    <path class="fil3" d="M10420 1520l370 0 293 873c27,82 47,176 49,176l6 0c3,0 22,-94 50,-176l292 -873 370 0 -505 1408 -414 0 -511 -1408z"/>
    <path class="fil3" d="M12651 1487c406,0 624,296 624,668 0,42 -8,136 -8,136l-972 0c22,245 213,372 423,372 226,0 405,-154 405,-154l136 251c0,0 -216,201 -566,201 -467,0 -757,-336 -757,-737 0,-433 296,-737 715,-737zm271 563c-6,-190 -124,-292 -279,-292 -179,0 -304,110 -337,292l616 0z"/>
   </g>
  </g>
 </g>
</svg>
